<?xml version="1.0" encoding="utf-8"?>
<svg xmlns="http://www.w3.org/2000/svg" xml:space="preserve" viewBox="0 0 576 576">
  <linearGradient id="a" x1="288" x2="288" y1="-1e-8" y2="576" gradientUnits="userSpaceOnUse">
    <stop offset="0" stop-color="#fff"/>
    <stop offset="1"/>
  </linearGradient>
  <path fill="url(#a)" d="M0 0h576v576H0z"/>
  <path fill="#FFF" stroke="#000" stroke-width="2" d="M76.9 480h23.4c8.7 0 13.8 2.7 13.8 11.9v7.1c0 7.4-4 9.4-10.8 9.6l-.2.2c7.3.3 12.1 4.6 12.1 12.3v9c0 10.3-5.4 14.1-15.8 14.1H76.9V480zm16 25h1.8c2.3 0 3.9-1.6 3.9-4v-6.8c0-2.3-1.5-4-3.9-4h-1.8V505zm0 28.4h1.6c2.5 0 4-1.3 4-4v-10.6c0-2.8-1.5-4-4-4h-1.6v18.6zm25.6-34.9c0-10.2 3.1-19.9 19.7-19.9 16.6 0 19.7 9.7 19.7 19.9v27.2c0 10.2-3.1 19.9-19.7 19.9-16.6 0-19.7-9.7-19.7-19.9v-27.2zm16.6 32.1c0 2.2.6 4.2 3.1 4.2s3.1-2 3.1-4.2v-36.9c0-2.2-.6-4.2-3.1-4.2s-3.1 2-3.1 4.2v36.9zm34.8-37.7h-9.8v-13h36.2v13h-9.8v51.3h-16.6v-51.3zm36.6 0h-9.8v-13h36.2v13H223v51.3h-16.6v-51.3zm28.5 5.6c0-10.2 3.1-19.9 19.7-19.9s19.7 9.7 19.7 19.9v27.2c0 10.2-3.1 19.9-19.7 19.9s-19.7-9.7-19.7-19.9v-27.2zm16.6 32.1c0 2.2.6 4.2 3.1 4.2s3.1-2 3.1-4.2v-36.9c0-2.2-.6-4.2-3.1-4.2s-3.1 2-3.1 4.2v36.9zm26.8-50.6h22l4.3 37.5h.2l3.9-37.5h22.3v64.3h-14v-47.7h-.2l-6.9 47.7h-10.4l-6.9-47.7h-.2v47.7h-14V480zm86.3 12.9h-9.8v-13H391v13h-9.8v51.3h-16.6v-51.3zm28.5-12.9h28v13h-11.4v11.8h10.7v12.4h-10.7v14.1h12.3v13h-28.9V480zm37.1 29.3-6.7-29.3h16.6l3.2 21.1h.2l4-21.1h14.8l-7 27.6 8.9 36.6h-16l-4.8-26.9h-.2l-3.8 26.9h-16.6l7.4-34.9zm44.3-16.4h-9.8v-13H501v13h-9.8v51.3h-16.6v-51.3zM154 38.5h-9.8v-13h36.2v13h-9.8v51.3H154V38.5zm28.6 5.5c0-10.2 3.1-19.9 19.7-19.9 16.6 0 19.7 9.7 19.7 19.9v27.2c0 10.2-3.1 19.9-19.7 19.9-16.6 0-19.7-9.7-19.7-19.9V44zm16.5 32.1c0 2.2.6 4.2 3.1 4.2s3.1-2 3.1-4.2V39.2c0-2.2-.6-4.2-3.1-4.2s-3.1 2-3.1 4.2v36.9zm26.8-50.6h21.7c9.5 0 15.2 4.7 15.2 14.7v7.9c0 9.3-3.4 15.5-13.7 15.5H242v26.2h-16V25.5zM242 52.8h2.9c2.9 0 4-1.4 4-3.9v-8.7c0-2.5-1.1-3.9-4-3.9H242v16.5zm53.5-14.3h-9.8v-13h36.2v13h-9.8v51.3h-16.6V38.5zm28.5-13h28v13h-11.4v11.8h10.7v12.4h-10.7v14.1h12.3v13H324V25.5zm37.1 29.3-6.7-29.3H371l3.2 21.1h.2l4-21.1h14.8l-7 27.6 8.9 36.6h-16l-4.8-26.9h-.2l-3.8 26.9h-16.6l7.4-34.9zm44.3-16.3h-9.8v-13h36.2v13H422v51.3h-16.6V38.5z"/>
  <path fill="none" stroke="#000" stroke-miterlimit="10" stroke-width="1.5184" d="M0 0h576v576H0z"/>
  <circle cx="138.4" cy="78.5" r="23.3" fill="#FFF"/>
  <circle cx="138.4" cy="78.5" r="23.3" fill="none" stroke="#000" stroke-miterlimit="10" stroke-width="2"/>
  <path d="M137.6 74.4h-4.3v-1.6c2.4-.1 4.5-1 4.9-3.9h1.9v20h-2.4V74.4z"/>
  <circle cx="305.4" cy="271.2" r="23.3" fill="#FFF"/>
  <circle cx="305.4" cy="271.2" r="23.3" fill="none" stroke="#000" stroke-miterlimit="10" stroke-width="2"/>
  <path d="M306.1 272.3c2.6-1.5 4.2-2.5 4.2-4.9 0-2.4-1.7-4.1-4.3-4.1-1.4 0-2.4.5-3.2 1.2-.8.8-1.1 1.9-1.1 4h-2.6c0-2.6.7-4.2 1.9-5.4 1.3-1.2 3.1-1.9 5.2-1.9 4 0 6.6 2.6 6.6 6.1 0 3.8-2.6 5.1-5.8 6.9-2.1 1.2-4.9 2.8-5.5 5h10.8v2.3h-13.8c.4-5.2 4.2-7.2 7.6-9.2z"/>
</svg>